{
	"asset":{
		"version":"2.0"
	},
	"scenes":[{
		"nodes":[0,
		2]
	}],
	"nodes":[{
		"name":"Subdivision Surface.1",
		"children":[1]
	},
	{
		"translation":[-0.049,
		4.004,
		-0.172],
		"rotation":[0,
		0,
		0,
		-1],
		"scale":[1,
		1,
		1],
		"mesh":0,
		"name":"pedals.1"
	},
	{
		"name":"Subdivision Surface",
		"children":[3]
	},
	{
		"translation":[-0.054,
		4.008,
		-0.185],
		"rotation":[0,
		0,
		0,
		-1],
		"scale":[1,
		1,
		1],
		"mesh":1,
		"name":"pedals.1"
	}],
	"meshes":[{
		"primitives":[{
			"attributes":{
				"POSITION":1,
				"NORMAL":2,
				"TEXCOORD_0":3
			},
			"indices":0,
			"material":0
		}]
	},
	{
		"primitives":[{
			"attributes":{
				"POSITION":5,
				"NORMAL":6,
				"TEXCOORD_0":7
			},
			"indices":4,
			"material":1
		}]
	}],
	"accessors":[{
		"bufferView":0,
		"type":"SCALAR",
		"componentType":5123,
		"count":56184,
		"byteOffset":0,
		"min":[0],
		"max":[10553]
	},
	{
		"bufferView":1,
		"type":"VEC3",
		"componentType":5126,
		"count":10554,
		"byteOffset":0,
		"min":[-4,
		-3.822,
		-4.247],
		"max":[4.001,
		3.82,
		4.247]
	},
	{
		"bufferView":1,
		"type":"VEC3",
		"componentType":5126,
		"count":10554,
		"byteOffset":12,
		"min":[-1,
		-1,
		-1],
		"max":[1,
		1,
		1]
	},
	{
		"bufferView":1,
		"type":"VEC2",
		"componentType":5126,
		"count":10554,
		"byteOffset":24,
		"min":[-1,
		-1.167],
		"max":[1,
		1]
	},
	{
		"bufferView":2,
		"type":"SCALAR",
		"componentType":5123,
		"count":17997,
		"byteOffset":0,
		"min":[0],
		"max":[6270]
	},
	{
		"bufferView":3,
		"type":"VEC3",
		"componentType":5126,
		"count":6271,
		"byteOffset":0,
		"min":[-4.257,
		-4.088,
		-4.5],
		"max":[4.257,
		4.088,
		4.5]
	},
	{
		"bufferView":3,
		"type":"VEC3",
		"componentType":5126,
		"count":6271,
		"byteOffset":12,
		"min":[-1,
		-1,
		-1],
		"max":[1,
		1,
		1]
	},
	{
		"bufferView":3,
		"type":"VEC2",
		"componentType":5126,
		"count":6271,
		"byteOffset":24,
		"min":[-1,
		-1.167],
		"max":[1,
		1]
	}],
	"bufferViews":[{
		"buffer":0,
		"byteOffset":0,
		"byteLength":112368,
		"target":34963
	},
	{
		"buffer":0,
		"byteOffset":112368,
		"byteLength":337728,
		"target":34962,
		"byteStride":32
	},
	{
		"buffer":1,
		"byteOffset":0,
		"byteLength":35994,
		"target":34963
	},
	{
		"buffer":1,
		"byteOffset":35996,
		"byteLength":200672,
		"target":34962,
		"byteStride":32
	}],
	"buffers":[{
		"uri":"data:application/octet-stream;base64,",
		"byteLength":450096
	},
	{
		"uri":"data:application/octet-stream;base64,",
		"byteLength":236668
	}],
	"materials":[{
		"pbrMetallicRoughness":{
			"baseColorFactor":[1,
			1,
			1,
			1],
			"metallicFactor":0.92,
			"roughnessFactor":0
		},
		"emissiveFactor":[0,
		0,
		0],
		"alphaMode":"OPAQUE",
		"doubleSided":false
	},
	{
		"pbrMetallicRoughness":{
			"baseColorFactor":[0,
			0,
			0,
			0.15],
			"metallicFactor":1,
			"roughnessFactor":1
		},
		"emissiveFactor":[0,
		0,
		0],
		"alphaMode":"BLEND",
		"doubleSided":false
	}]
}