{
	"asset":{
		"version":"2.0"
	},
	"scenes":[{
		"nodes":[0]
	}],
	"nodes":[{
		"translation":[0,
		0,
		0],
		"rotation":[0,
		0,
		0,
		1],
		"scale":[1,
		1,
		-1],
		"name":"Subdivision Surface",
		"children":[1]
	},
	{
		"translation":[0,
		0,
		0],
		"rotation":[0,
		-0.749,
		0,
		-0.663],
		"scale":[1,
		1,
		1],
		"mesh":0,
		"name":"Susans flower"
	}],
	"meshes":[{
		"primitives":[{
			"attributes":{
				"POSITION":1
			},
			"indices":0,
			"material":0
		}]
	}],
	"accessors":[{
		"bufferView":0,
		"type":"SCALAR",
		"componentType":5123,
		"count":303360,
		"byteOffset":0,
		"min":[0],
		"max":[51903]
	},
	{
		"bufferView":1,
		"type":"VEC3",
		"componentType":5126,
		"count":51904,
		"byteOffset":0,
		"min":[-4.226,
		0.649,
		-3.984],
		"max":[3.042,
		8.863,
		3.736]
	}],
	"bufferViews":[{
		"buffer":0,
		"byteOffset":0,
		"byteLength":606720,
		"target":34963
	},
	{
		"buffer":0,
		"byteOffset":606720,
		"byteLength":622848,
		"target":34962
	}],
	"buffers":[{
		"uri":"data:application/octet-stream;base64,",
		"byteLength":1229568
	}],
	"materials":[{
		"pbrMetallicRoughness":{
			"baseColorFactor":[1,
			1,
			1,
			1],
			"metallicFactor":0,
			"roughnessFactor":0.5
		},
		"emissiveFactor":[0,
		0,
		0],
		"alphaMode":"OPAQUE",
		"doubleSided":true
	}]
}