{
	"asset":{
		"version":"2.0"
	},
	"scenes":[{
		"nodes":[0,
		2]
	}],
	"nodes":[{
		"name":"Subdivision Surface.1",
		"children":[1]
	},
	{
		"translation":[-0.049,
		4.004,
		-0.172],
		"rotation":[0,
		0,
		0,
		-1],
		"scale":[1,
		1,
		1],
		"mesh":0,
		"name":"pedals.1"
	},
	{
		"name":"Subdivision Surface",
		"children":[3]
	},
	{
		"translation":[-0.054,
		4.139,
		-0.185],
		"rotation":[0,
		0,
		0,
		-1],
		"scale":[1,
		1,
		1],
		"mesh":1,
		"name":"pedals"
	}],
	"meshes":[{
		"primitives":[{
			"attributes":{
				"POSITION":1,
				"NORMAL":2,
				"TEXCOORD_0":3
			},
			"indices":0,
			"material":0
		}]
	},
	{
		"primitives":[{
			"attributes":{
				"POSITION":5,
				"NORMAL":6,
				"TEXCOORD_0":7
			},
			"indices":4,
			"material":1
		}]
	}],
	"accessors":[{
		"bufferView":0,
		"type":"SCALAR",
		"componentType":5123,
		"count":224736,
		"byteOffset":0,
		"min":[0],
		"max":[45976]
	},
	{
		"bufferView":1,
		"type":"VEC3",
		"componentType":5126,
		"count":45977,
		"byteOffset":0,
		"min":[-3.996,
		-3.822,
		-4.238],
		"max":[3.995,
		3.813,
		4.241]
	},
	{
		"bufferView":1,
		"type":"VEC3",
		"componentType":5126,
		"count":45977,
		"byteOffset":12,
		"min":[-1,
		-1,
		-1],
		"max":[1,
		1,
		1]
	},
	{
		"bufferView":1,
		"type":"VEC2",
		"componentType":5126,
		"count":45977,
		"byteOffset":24,
		"min":[-1,
		-1.167],
		"max":[1,
		1]
	},
	{
		"bufferView":2,
		"type":"SCALAR",
		"componentType":5123,
		"count":48234,
		"byteOffset":0,
		"min":[0],
		"max":[13303]
	},
	{
		"bufferView":3,
		"type":"VEC3",
		"componentType":5126,
		"count":13304,
		"byteOffset":0,
		"min":[-4.18,
		-3.957,
		-4.412],
		"max":[4.196,
		3.874,
		4.447]
	},
	{
		"bufferView":3,
		"type":"VEC3",
		"componentType":5126,
		"count":13304,
		"byteOffset":12,
		"min":[-1,
		-1,
		-0.999],
		"max":[1,
		1,
		0.997]
	},
	{
		"bufferView":3,
		"type":"VEC2",
		"componentType":5126,
		"count":13304,
		"byteOffset":24,
		"min":[-1,
		-1.167],
		"max":[1,
		1]
	}],
	"bufferViews":[{
		"buffer":0,
		"byteOffset":0,
		"byteLength":449472,
		"target":34963
	},
	{
		"buffer":0,
		"byteOffset":449472,
		"byteLength":1471264,
		"target":34962,
		"byteStride":32
	},
	{
		"buffer":1,
		"byteOffset":0,
		"byteLength":96468,
		"target":34963
	},
	{
		"buffer":1,
		"byteOffset":96468,
		"byteLength":425728,
		"target":34962,
		"byteStride":32
	}],
	"buffers":[{
		"uri":"data:application/octet-stream;base64,",
		"byteLength":1920736
	},
	{
		"uri":"data:application/octet-stream;base64,",
		"byteLength":522196
	}],
	"materials":[{
		"pbrMetallicRoughness":{
			"baseColorFactor":[0.11,
			0.11,
			0.11,
			1],
			"metallicFactor":0.92,
			"roughnessFactor":0
		},
		"emissiveFactor":[0,
		0,
		0],
		"alphaMode":"OPAQUE",
		"doubleSided":false
	},
	{
		"pbrMetallicRoughness":{
			"baseColorFactor":[0,
			0,
			0,
			0.15],
			"metallicFactor":1,
			"roughnessFactor":1
		},
		"emissiveFactor":[0,
		0,
		0],
		"alphaMode":"BLEND",
		"doubleSided":false
	}]
}