{
	"asset":{
		"version":"2.0",
		"generator":"Created using the official Cinema 4D glTF Exporter 1.000x290161"
	},
	"scenes":[{
		"nodes":[0,
		1,
		2]
	}],
	"nodes":[{
		"translation":[-73.038,
		-149.862,
		227.104],
		"name":"Cube.1",
		"rotation":[0,
		0,
		0,
		-1],
		"scale":[1,
		1,
		1],
		"mesh":0
	},
	{
		"translation":[-73.038,
		-149.862,
		227.104],
		"name":"Cube",
		"rotation":[0.11,
		0.469,
		0.491,
		0.726],
		"scale":[1,
		1,
		1],
		"mesh":1
	},
	{
		"translation":[4110.23,
		-8124.637,
		722.763],
		"name":"Null",
		"rotation":[0,
		0,
		0,
		-1],
		"scale":[1,
		1,
		1],
		"children":[3,
		6,
		7,
		8,
		11]
	},
	{
		"translation":[69.155,
		2328.717,
		-9126.044],
		"name":"m2",
		"rotation":[0.697,
		0.051,
		-0.64,
		-0.32],
		"scale":[1,
		1,
		1],
		"mesh":2,
		"children":[4,
		5]
	},
	{
		"translation":[-5120.97,
		-1804.684,
		-1294.285],
		"name":"Cap 1",
		"rotation":[0.494,
		0.44,
		0.057,
		0.748],
		"scale":[1,
		1,
		1],
		"mesh":3
	},
	{
		"translation":[-10968.972,
		-2490.961,
		947.259],
		"name":"Cap 2",
		"rotation":[0.025,
		0.893,
		0.449,
		0.023],
		"scale":[1,
		1,
		1],
		"mesh":4
	},
	{
		"translation":[-4183.269,
		7974.775,
		-495.658],
		"name":"Cube",
		"rotation":[0,
		0,
		0,
		-1],
		"scale":[1,
		1,
		1],
		"mesh":5
	},
	{
		"translation":[4999.032,
		-2657.636,
		4060.896],
		"name":"f",
		"rotation":[-0.329,
		0.064,
		-0.144,
		-0.931],
		"scale":[1,
		1,
		1],
		"mesh":6
	},
	{
		"translation":[4545.091,
		-2740.351,
		2857.422],
		"name":"r",
		"rotation":[0.265,
		-0.033,
		0.119,
		0.956],
		"scale":[1,
		1,
		1],
		"mesh":7,
		"children":[9,
		10]
	},
	{
		"translation":[-7908.833,
		-2764.211,
		531.62],
		"name":"Cap 1",
		"rotation":[-0.416,
		0.083,
		-0.062,
		-0.904],
		"scale":[1,
		1,
		1],
		"mesh":8
	},
	{
		"translation":[-6299.824,
		-2964.125,
		-2892.277],
		"name":"Cap 2",
		"rotation":[0.271,
		-0.212,
		-0.52,
		0.782],
		"scale":[1,
		1,
		1],
		"mesh":9
	},
	{
		"translation":[-5430.009,
		-4905.504,
		2703.384],
		"name":"Torus",
		"rotation":[0.695,
		-0.294,
		-0.213,
		0.621],
		"scale":[1,
		1,
		1],
		"mesh":10
	}],
	"meshes":[{
		"primitives":[{
			"attributes":{
				"POSITION":1,
				"NORMAL":2,
				"TEXCOORD_0":3
			},
			"indices":0,
			"material":0
		}]
	},
	{
		"primitives":[{
			"attributes":{
				"POSITION":5,
				"NORMAL":6,
				"TEXCOORD_0":7
			},
			"indices":4,
			"material":1
		}]
	},
	{
		"primitives":[{
			"attributes":{
				"POSITION":9,
				"NORMAL":10,
				"TEXCOORD_0":11
			},
			"indices":8,
			"material":2
		}]
	},
	{
		"primitives":[{
			"attributes":{
				"POSITION":13,
				"NORMAL":14,
				"TEXCOORD_0":15
			},
			"indices":12,
			"material":2
		}]
	},
	{
		"primitives":[{
			"attributes":{
				"POSITION":17,
				"NORMAL":18,
				"TEXCOORD_0":19
			},
			"indices":16,
			"material":2
		}]
	},
	{
		"primitives":[{
			"attributes":{
				"POSITION":21,
				"NORMAL":22,
				"TEXCOORD_0":23
			},
			"indices":20,
			"material":3
		}]
	},
	{
		"primitives":[{
			"attributes":{
				"POSITION":25,
				"NORMAL":26,
				"TEXCOORD_0":27
			},
			"indices":24,
			"material":3
		}]
	},
	{
		"primitives":[{
			"attributes":{
				"POSITION":29,
				"NORMAL":30,
				"TEXCOORD_0":31
			},
			"indices":28,
			"material":3
		}]
	},
	{
		"primitives":[{
			"attributes":{
				"POSITION":33,
				"NORMAL":34,
				"TEXCOORD_0":35
			},
			"indices":32,
			"material":3
		}]
	},
	{
		"primitives":[{
			"attributes":{
				"POSITION":37,
				"NORMAL":38,
				"TEXCOORD_0":39
			},
			"indices":36,
			"material":3
		}]
	},
	{
		"primitives":[{
			"attributes":{
				"POSITION":41,
				"NORMAL":42,
				"TEXCOORD_0":43
			},
			"indices":40,
			"material":3
		}]
	}],
	"accessors":[{
		"max":[23],
		"bufferView":0,
		"type":"SCALAR",
		"componentType":5123,
		"count":36,
		"byteOffset":0,
		"min":[0]
	},
	{
		"max":[100,
		100,
		100],
		"bufferView":1,
		"type":"VEC3",
		"componentType":5126,
		"count":24,
		"byteOffset":0,
		"min":[-100,
		-100,
		-100]
	},
	{
		"max":[1,
		1,
		1],
		"bufferView":1,
		"type":"VEC3",
		"componentType":5126,
		"count":24,
		"byteOffset":12,
		"min":[-1,
		-1,
		-1]
	},
	{
		"max":[1,
		1],
		"bufferView":1,
		"type":"VEC2",
		"componentType":5126,
		"count":24,
		"byteOffset":24,
		"min":[0,
		0]
	},
	{
		"max":[23],
		"bufferView":2,
		"type":"SCALAR",
		"componentType":5123,
		"count":36,
		"byteOffset":0,
		"min":[0]
	},
	{
		"max":[100,
		100,
		100],
		"bufferView":3,
		"type":"VEC3",
		"componentType":5126,
		"count":24,
		"byteOffset":0,
		"min":[-100,
		-100,
		-100]
	},
	{
		"max":[1,
		1,
		1],
		"bufferView":3,
		"type":"VEC3",
		"componentType":5126,
		"count":24,
		"byteOffset":12,
		"min":[-1,
		-1,
		-1]
	},
	{
		"max":[1,
		1],
		"bufferView":3,
		"type":"VEC2",
		"componentType":5126,
		"count":24,
		"byteOffset":24,
		"min":[0,
		0]
	},
	{
		"max":[353],
		"bufferView":4,
		"type":"SCALAR",
		"componentType":5123,
		"count":990,
		"byteOffset":0,
		"min":[0]
	},
	{
		"max":[-4919.799,
		2171.979,
		1199.117],
		"bufferView":5,
		"type":"VEC3",
		"componentType":5126,
		"count":354,
		"byteOffset":0,
		"min":[-11300.199,
		-2672.057,
		-2232.997]
	},
	{
		"max":[0.998,
		0.919,
		0.978],
		"bufferView":5,
		"type":"VEC3",
		"componentType":5126,
		"count":354,
		"byteOffset":12,
		"min":[-0.989,
		-0.975,
		-0.969]
	},
	{
		"max":[1,
		1],
		"bufferView":5,
		"type":"VEC2",
		"componentType":5126,
		"count":354,
		"byteOffset":24,
		"min":[0,
		0]
	},
	{
		"max":[4],
		"bufferView":6,
		"type":"SCALAR",
		"componentType":5123,
		"count":9,
		"byteOffset":0,
		"min":[0]
	},
	{
		"max":[332,
		315.751,
		0],
		"bufferView":7,
		"type":"VEC3",
		"componentType":5126,
		"count":5,
		"byteOffset":0,
		"min":[-268.594,
		-315.751,
		0]
	},
	{
		"max":[0,
		0,
		1],
		"bufferView":7,
		"type":"VEC3",
		"componentType":5126,
		"count":5,
		"byteOffset":12,
		"min":[0,
		0,
		1]
	},
	{
		"max":[0.962,
		1],
		"bufferView":7,
		"type":"VEC2",
		"componentType":5126,
		"count":5,
		"byteOffset":24,
		"min":[0,
		0]
	},
	{
		"max":[4],
		"bufferView":8,
		"type":"SCALAR",
		"componentType":5123,
		"count":9,
		"byteOffset":0,
		"min":[0]
	},
	{
		"max":[332,
		315.751,
		0],
		"bufferView":9,
		"type":"VEC3",
		"componentType":5126,
		"count":5,
		"byteOffset":0,
		"min":[-268.594,
		-315.751,
		0]
	},
	{
		"max":[0,
		0,
		-1],
		"bufferView":9,
		"type":"VEC3",
		"componentType":5126,
		"count":5,
		"byteOffset":12,
		"min":[0,
		0,
		-1]
	},
	{
		"max":[0.995,
		1],
		"bufferView":9,
		"type":"VEC2",
		"componentType":5126,
		"count":5,
		"byteOffset":24,
		"min":[0,
		0]
	},
	{
		"max":[23],
		"bufferView":10,
		"type":"SCALAR",
		"componentType":5123,
		"count":36,
		"byteOffset":0,
		"min":[0]
	},
	{
		"max":[100,
		100,
		100],
		"bufferView":11,
		"type":"VEC3",
		"componentType":5126,
		"count":24,
		"byteOffset":0,
		"min":[-100,
		-100,
		-100]
	},
	{
		"max":[1,
		1,
		1],
		"bufferView":11,
		"type":"VEC3",
		"componentType":5126,
		"count":24,
		"byteOffset":12,
		"min":[-1,
		-1,
		-1]
	},
	{
		"max":[1,
		1],
		"bufferView":11,
		"type":"VEC2",
		"componentType":5126,
		"count":24,
		"byteOffset":24,
		"min":[0,
		0]
	},
	{
		"max":[973],
		"bufferView":12,
		"type":"SCALAR",
		"componentType":5123,
		"count":1308,
		"byteOffset":0,
		"min":[0]
	},
	{
		"max":[-11796.353,
		5542.433,
		6373.547],
		"bufferView":13,
		"type":"VEC3",
		"componentType":5126,
		"count":974,
		"byteOffset":0,
		"min":[-15569.146,
		-2329.753,
		413.429]
	},
	{
		"max":[0.966,
		0.982,
		0.995],
		"bufferView":13,
		"type":"VEC3",
		"componentType":5126,
		"count":974,
		"byteOffset":12,
		"min":[-0.993,
		-0.918,
		-0.993]
	},
	{
		"max":[1,
		1],
		"bufferView":13,
		"type":"VEC2",
		"componentType":5126,
		"count":974,
		"byteOffset":24,
		"min":[0,
		0]
	},
	{
		"max":[261],
		"bufferView":14,
		"type":"SCALAR",
		"componentType":5123,
		"count":690,
		"byteOffset":0,
		"min":[0]
	},
	{
		"max":[-6041.698,
		2639.718,
		786.19],
		"bufferView":15,
		"type":"VEC3",
		"componentType":5126,
		"count":262,
		"byteOffset":0,
		"min":[-9302.368,
		-3992.075,
		-3090.882]
	},
	{
		"max":[0.971,
		0.979,
		0.974],
		"bufferView":15,
		"type":"VEC3",
		"componentType":5126,
		"count":262,
		"byteOffset":12,
		"min":[-0.982,
		-0.934,
		-0.981]
	},
	{
		"max":[1,
		1],
		"bufferView":15,
		"type":"VEC2",
		"componentType":5126,
		"count":262,
		"byteOffset":24,
		"min":[0,
		0]
	},
	{
		"max":[4],
		"bufferView":16,
		"type":"SCALAR",
		"componentType":5123,
		"count":9,
		"byteOffset":0,
		"min":[0]
	},
	{
		"max":[332,
		315.751,
		0],
		"bufferView":17,
		"type":"VEC3",
		"componentType":5126,
		"count":5,
		"byteOffset":0,
		"min":[-268.594,
		-315.751,
		0]
	},
	{
		"max":[0,
		0,
		1],
		"bufferView":17,
		"type":"VEC3",
		"componentType":5126,
		"count":5,
		"byteOffset":12,
		"min":[0,
		0,
		1]
	},
	{
		"max":[1,
		0.969],
		"bufferView":17,
		"type":"VEC2",
		"componentType":5126,
		"count":5,
		"byteOffset":24,
		"min":[0,
		0]
	},
	{
		"max":[4],
		"bufferView":18,
		"type":"SCALAR",
		"componentType":5123,
		"count":9,
		"byteOffset":0,
		"min":[0]
	},
	{
		"max":[332,
		315.751,
		0],
		"bufferView":19,
		"type":"VEC3",
		"componentType":5126,
		"count":5,
		"byteOffset":0,
		"min":[-268.594,
		-315.751,
		0]
	},
	{
		"max":[0,
		0,
		-1],
		"bufferView":19,
		"type":"VEC3",
		"componentType":5126,
		"count":5,
		"byteOffset":12,
		"min":[0,
		0,
		-1]
	},
	{
		"max":[1,
		0.951],
		"bufferView":19,
		"type":"VEC2",
		"componentType":5126,
		"count":5,
		"byteOffset":24,
		"min":[0,
		0]
	},
	{
		"max":[343],
		"bufferView":20,
		"type":"SCALAR",
		"componentType":5123,
		"count":1008,
		"byteOffset":0,
		"min":[0]
	},
	{
		"max":[2719.971,
		372,
		2712.366],
		"bufferView":21,
		"type":"VEC3",
		"componentType":5126,
		"count":344,
		"byteOffset":0,
		"min":[-2719.971,
		-372,
		-2712.366]
	},
	{
		"max":[0.707,
		0.707,
		0.706],
		"bufferView":21,
		"type":"VEC3",
		"componentType":5126,
		"count":344,
		"byteOffset":12,
		"min":[-0.707,
		-0.707,
		-0.706]
	},
	{
		"max":[1,
		1],
		"bufferView":21,
		"type":"VEC2",
		"componentType":5126,
		"count":344,
		"byteOffset":24,
		"min":[0,
		0]
	}],
	"bufferViews":[{
		"buffer":0,
		"byteOffset":0,
		"byteLength":72,
		"target":34963
	},
	{
		"buffer":0,
		"byteOffset":72,
		"byteLength":768,
		"target":34962,
		"byteStride":32
	},
	{
		"buffer":1,
		"byteOffset":0,
		"byteLength":72,
		"target":34963
	},
	{
		"buffer":1,
		"byteOffset":72,
		"byteLength":768,
		"target":34962,
		"byteStride":32
	},
	{
		"buffer":2,
		"byteOffset":0,
		"byteLength":1980,
		"target":34963
	},
	{
		"buffer":2,
		"byteOffset":1980,
		"byteLength":11328,
		"target":34962,
		"byteStride":32
	},
	{
		"buffer":3,
		"byteOffset":0,
		"byteLength":18,
		"target":34963
	},
	{
		"buffer":3,
		"byteOffset":20,
		"byteLength":160,
		"target":34962,
		"byteStride":32
	},
	{
		"buffer":4,
		"byteOffset":0,
		"byteLength":18,
		"target":34963
	},
	{
		"buffer":4,
		"byteOffset":20,
		"byteLength":160,
		"target":34962,
		"byteStride":32
	},
	{
		"buffer":5,
		"byteOffset":0,
		"byteLength":72,
		"target":34963
	},
	{
		"buffer":5,
		"byteOffset":72,
		"byteLength":768,
		"target":34962,
		"byteStride":32
	},
	{
		"buffer":6,
		"byteOffset":0,
		"byteLength":2616,
		"target":34963
	},
	{
		"buffer":6,
		"byteOffset":2616,
		"byteLength":31168,
		"target":34962,
		"byteStride":32
	},
	{
		"buffer":7,
		"byteOffset":0,
		"byteLength":1380,
		"target":34963
	},
	{
		"buffer":7,
		"byteOffset":1380,
		"byteLength":8384,
		"target":34962,
		"byteStride":32
	},
	{
		"buffer":8,
		"byteOffset":0,
		"byteLength":18,
		"target":34963
	},
	{
		"buffer":8,
		"byteOffset":20,
		"byteLength":160,
		"target":34962,
		"byteStride":32
	},
	{
		"buffer":9,
		"byteOffset":0,
		"byteLength":18,
		"target":34963
	},
	{
		"buffer":9,
		"byteOffset":20,
		"byteLength":160,
		"target":34962,
		"byteStride":32
	},
	{
		"buffer":10,
		"byteOffset":0,
		"byteLength":2016,
		"target":34963
	},
	{
		"buffer":10,
		"byteOffset":2016,
		"byteLength":11008,
		"target":34962,
		"byteStride":32
	}],
	"buffers":[{
		"uri":"data:application/octet-stream;base64,",
		"byteLength":840
	},
	{
		"uri":"data:application/octet-stream;base64,",
		"byteLength":840
	},
	{
		"uri":"data:application/octet-stream;base64,",
		"byteLength":13308
	},
	{
		"uri":"data:application/octet-stream;base64,",
		"byteLength":180
	},
	{
		"uri":"data:application/octet-stream;base64,",
		"byteLength":180
	},
	{
		"uri":"data:application/octet-stream;base64,",
		"byteLength":840
	},
	{
		"uri":"data:application/octet-stream;base64,",
		"byteLength":33784
	},
	{
		"uri":"data:application/octet-stream;base64,",
		"byteLength":9764
	},
	{
		"uri":"data:application/octet-stream;base64,",
		"byteLength":180
	},
	{
		"uri":"data:application/octet-stream;base64,",
		"byteLength":180
	},
	{
		"uri":"data:application/octet-stream;base64,",
		"byteLength":13024
	}],
	"materials":[{
		"pbrMetallicRoughness":{
			"baseColorFactor":[1,
			1,
			1,
			1],
			"metallicFactor":1,
			"roughnessFactor":1
		},
		"emissiveFactor":[0,
		0,
		0],
		"alphaMode":"OPAQUE",
		"doubleSided":false,
		"name":""
	},
	{
		"pbrMetallicRoughness":{
			"baseColorFactor":[1,
			1,
			1,
			1],
			"metallicFactor":1,
			"roughnessFactor":1
		},
		"emissiveFactor":[0,
		0,
		0],
		"alphaMode":"OPAQUE",
		"doubleSided":false,
		"name":""
	},
	{
		"pbrMetallicRoughness":{
			"baseColorFactor":[0.054,
			0.35,
			0.9,
			0],
			"metallicFactor":0,
			"roughnessFactor":0.5
		},
		"emissiveFactor":[0,
		0,
		0],
		"alphaMode":"BLEND",
		"doubleSided":false,
		"name":"water"
	},
	{
		"pbrMetallicRoughness":{
			"baseColorFactor":[1,
			1,
			1,
			1],
			"metallicFactor":1,
			"roughnessFactor":1
		},
		"emissiveFactor":[0,
		0,
		0],
		"alphaMode":"OPAQUE",
		"doubleSided":false,
		"name":""
	}]
}